# xmcd CD database file
#
# Track frame offsets:
#	150
#	19772
#	32823
#	43703
#	59246
#	72477
#	85549
#	98931
#	111147
#	124354
#	136854
#	149123
#	163898
#	177964
#	193142
#	207151
#	219114
#	233969
#	250374
#	265584
#
# Disc length: 3744 seconds
#
# Revision: 0
# Processed by: cddbd v1.5.2PL0 Copyright (c) Steve Scherf et al.
# Submitted via: CDex 1.70beta2
#
DISCID=330e9e14
DTITLE=Louis Armstrong - The Best of [CD2)
DYEAR=1900
DGENRE=Jazz
TTITLE0=TALK TO THE ANIMALS
TTITLE1=THE GYPSY IN MY SOUL
TTITLE2=THE HAPPY TIME
TTITLE3=I BELIEVE
TTITLE4=WILLKOMMEN
TTITLE5=YOU'LL NEVER WALK ALONE
TTITLE6=SUNRISE, SUNSET
TTITLE7=ROSIE
TTITLE8=THAT'S MY DESIRE
TTITLE9=SWEET SUE
TTITLE10=ST. LOUIS BLUES
TTITLE11=I'VE GOT THE WORLD ON A STRING
TTITLE12=LAZY RIVER
TTITLE13=DEAR OLD SOUTHLAND
TTITLE14=WHERE THE BLUES WERE BORN IN NEW ORLEANS
TTITLE15=IT TAKES TIME
TTITLE16=WRAP YOUR TROUBLES IN DREAMS
TTITLE17=STARDUST
TTITLE18=BETWEEN THE DEVIL AND THE DEEP BLUE SEA
TTITLE19=I'M CONFESSIN'
EXTD=
EXTT0=
EXTT1=
EXTT2=
EXTT3=
EXTT4=
EXTT5=
EXTT6=
EXTT7=
EXTT8=
EXTT9=
EXTT10=
EXTT11=
EXTT12=
EXTT13=
EXTT14=
EXTT15=
EXTT16=
EXTT17=
EXTT18=
EXTT19=
PLAYORDER=
